<?xml version="1.0" standalone="no"?>
<!DOCTYPE svg PUBLIC "-//W3C//DTD SVG 20010904//EN"
 "http://www.w3.org/TR/2001/REC-SVG-20010904/DTD/svg10.dtd">
<svg version="1.0" xmlns="http://www.w3.org/2000/svg"
 width="920.000000pt" height="920.000000pt" viewBox="0 0 920.000000 920.000000"
 preserveAspectRatio="xMidYMid meet">

<g transform="translate(0.000000,920.000000) scale(0.100000,-0.100000)"
fill="#000000" stroke="none">
<path d="M5933 8184 c-85 -31 -173 -134 -173 -204 0 -48 47 -90 100 -90 78 0
173 67 219 155 29 55 27 91 -8 126 -34 33 -70 37 -138 13z m22 -74 c4 -6 10
-8 14 -6 13 9 10 -33 -5 -44 -29 -25 -68 16 -44 45 15 17 26 19 35 5z"/>
<path d="M5255 8074 c-133 -68 -197 -223 -108 -263 81 -37 201 28 262 144 28
53 27 90 -4 120 -32 33 -85 33 -150 -1z m50 -83 c0 -34 -32 -52 -50 -27 -19
25 -2 58 28 54 16 -2 22 -10 22 -27z"/>
<path d="M5734 7540 c-45 -14 -123 -69 -156 -111 -22 -27 -31 -51 -35 -93 -5
-50 -3 -60 17 -81 13 -14 38 -28 57 -31 97 -18 244 106 259 219 5 36 2 48 -17
70 -27 31 -76 41 -125 27z m15 -94 c17 -20 -3 -69 -27 -64 -21 4 -28 44 -12
64 15 18 24 18 39 0z"/>
<path d="M5042 7439 c-69 -27 -144 -100 -160 -157 -46 -155 121 -194 246 -58
74 80 94 162 49 204 -33 32 -74 35 -135 11z m31 -91 c12 -19 -6 -48 -29 -48
-16 0 -29 43 -19 60 9 15 35 9 48 -12z"/>
<path d="M7026 7397 c-30 -22 -55 -113 -50 -181 9 -108 70 -206 128 -206 26 0
60 33 75 73 30 79 -1 250 -55 304 -26 26 -70 30 -98 10z"/>
<path d="M6562 7255 c-94 -79 -53 -349 59 -387 30 -11 79 20 96 59 25 60 23
186 -6 250 -42 94 -96 123 -149 78z"/>
<path d="M3173 7015 c-33 -24 -28 -49 18 -89 99 -84 344 -135 389 -81 9 11 9
15 1 15 -6 0 -11 11 -11 24 0 79 -323 186 -397 131z"/>
<path d="M2780 6898 c-34 -18 -37 -54 -8 -85 77 -83 327 -145 387 -95 51 41
-22 112 -168 164 -71 26 -177 34 -211 16z"/>
<path d="M1494 6809 c-29 -57 -54 -140 -70 -236 -13 -77 -14 -99 -4 -124 12
-28 14 -29 32 -13 35 32 78 217 78 336 0 67 -13 81 -36 37z"/>
<path d="M2362 6777 c-49 -15 -53 -49 -11 -94 65 -67 195 -115 317 -116 62 -1
75 2 94 21 13 12 17 22 11 22 -7 0 -10 7 -7 15 11 27 -22 59 -97 97 -118 59
-231 80 -307 55z"/>
<path d="M5840 6593 c-47 -24 -54 -75 -16 -120 50 -60 187 -111 268 -100 46 6
88 41 88 71 0 101 -235 204 -340 149z"/>
<path d="M1560 6560 c-23 -44 -62 -220 -66 -305 -6 -98 4 -132 29 -105 45 47
82 236 78 393 -1 41 -23 51 -41 17z m20 -185 c0 -14 -4 -25 -10 -25 -11 0 -14
33 -3 43 11 11 13 8 13 -18z"/>
<path d="M5422 6560 c-127 -30 -73 -152 94 -211 127 -45 236 -3 210 79 -17 51
-110 111 -204 131 -29 6 -56 11 -60 10 -4 -1 -22 -5 -40 -9z"/>
<path d="M4958 6494 c-23 -12 -28 -21 -28 -54 0 -77 108 -149 235 -158 61 -4
74 -1 98 18 43 34 37 74 -18 126 -72 70 -220 105 -287 68z"/>
<path d="M1627 6253 c-55 -130 -87 -323 -66 -394 7 -21 16 -39 20 -39 26 0 85
172 99 289 17 146 -15 234 -53 144z"/>
<path d="M6253 6149 c-18 -5 -40 -21 -50 -35 -15 -23 -15 -28 0 -59 34 -72
161 -132 259 -123 87 9 131 66 94 123 -22 34 -98 76 -165 91 -64 16 -93 16
-138 3z"/>
<path d="M5823 6100 c-45 -10 -63 -28 -63 -60 0 -79 156 -168 276 -158 167 14
98 169 -95 214 -62 15 -71 15 -118 4z"/>
<path d="M5377 6060 c-99 -31 -67 -115 68 -177 76 -34 182 -44 220 -19 61 40
4 133 -107 174 -68 25 -143 35 -181 22z"/>
<path d="M1256 5978 c-39 -106 -71 -357 -47 -372 40 -25 110 298 85 392 -9 33
-20 27 -38 -20z"/>
<path d="M2403 5920 c-56 -12 -96 -33 -139 -77 -45 -45 -66 -93 -66 -154 2
-181 210 -273 379 -166 84 54 133 161 110 248 -15 60 -80 123 -148 143 -57 17
-73 18 -136 6z"/>
<path d="M3387 5736 c-108 -40 -177 -123 -177 -212 0 -130 81 -212 220 -222
59 -4 71 -1 130 30 219 114 166 396 -78 414 -35 3 -72 -1 -95 -10z"/>
<path d="M1326 5702 c-21 -41 -43 -125 -61 -239 -13 -82 -14 -110 -5 -138 6
-19 15 -35 20 -35 14 0 48 81 64 150 29 128 33 290 6 290 -5 0 -16 -12 -24
-28z"/>
<path d="M1403 5428 c-50 -63 -94 -376 -59 -423 13 -18 15 -18 34 14 36 59 56
165 57 295 0 117 -8 145 -32 114z"/>
<path d="M2759 5361 c-108 -36 -179 -118 -179 -209 0 -89 40 -151 125 -195
109 -55 281 12 330 130 43 103 2 205 -105 261 -31 16 -136 24 -171 13z"/>
<path d="M4549 5338 c-79 -28 -124 -61 -164 -119 -27 -38 -30 -50 -30 -119 0
-75 1 -78 44 -133 175 -227 582 -124 593 150 1 23 -5 49 -12 58 -7 8 -10 15
-6 15 16 0 -27 61 -66 95 -56 49 -105 65 -208 71 -71 4 -96 1 -151 -18z m191
-198 c0 -5 -7 -10 -16 -10 -8 0 -12 5 -9 10 3 6 10 10 16 10 5 0 9 -4 9 -10z
m55 -88 c-1 -18 -5 -35 -10 -40 -4 -4 -5 1 -2 11 9 24 -10 22 -23 -3 -11 -21
-44 -27 -55 -10 -4 6 6 11 22 11 23 2 24 2 6 6 -13 2 -23 10 -23 16 0 7 -3 22
-6 34 -5 16 1 25 23 36 26 15 29 14 49 -7 14 -14 20 -33 19 -54z m-124 25 c-8
-8 -11 -7 -11 4 0 20 13 34 18 19 3 -7 -1 -17 -7 -23z m-26 3 c3 -5 1 -10 -4
-10 -6 0 -11 5 -11 10 0 6 2 10 4 10 3 0 8 -4 11 -10z"/>
<path d="M2105 4987 c-56 -22 -93 -46 -120 -79 -36 -43 -47 -73 -46 -135 1
-88 44 -149 140 -198 74 -37 220 -4 279 63 61 69 80 167 46 238 -22 45 -84 98
-133 112 -48 15 -127 14 -166 -1z"/>
<path d="M5265 4889 c-16 -6 -41 -15 -55 -21 -14 -6 -30 -12 -37 -14 -30 -6
-104 -80 -128 -127 -32 -65 -34 -150 -5 -208 26 -51 90 -113 132 -129 18 -6
41 -16 50 -21 62 -32 218 -14 304 36 203 117 176 386 -46 464 -74 26 -170 35
-215 20z m155 -270 c-12 -9 -11 -10 4 -5 27 9 46 -12 46 -50 0 -26 -4 -34 -18
-34 -10 0 -22 -4 -27 -9 -13 -13 -50 18 -57 47 -4 12 -2 20 2 17 5 -3 11 -1
15 5 3 5 1 10 -5 10 -17 0 -1 20 24 30 26 9 36 3 16 -11z m-35 -99 c3 -5 1
-10 -4 -10 -6 0 -11 5 -11 10 0 6 2 10 4 10 3 0 8 -4 11 -10z"/>
<path d="M3120 4811 c-78 -25 -148 -90 -170 -156 -29 -88 13 -192 95 -236 24
-13 46 -21 48 -19 2 3 34 49 70 102 37 54 93 130 125 170 79 99 77 93 34 118
-40 25 -155 37 -202 21z"/>
<path d="M3735 4573 c-64 -14 -165 -83 -200 -136 -90 -137 -34 -309 123 -379
57 -26 171 -35 225 -18 111 33 204 101 233 169 20 46 25 138 9 183 -15 44 -63
108 -81 108 -8 0 -14 4 -14 10 0 13 -92 58 -107 53 -6 -2 -14 1 -18 6 -6 11
-129 13 -170 4z m164 -283 l7 25 7 -25 c7 -29 -34 -90 -61 -89 -9 0 -12 3 -5
5 8 4 8 12 -2 31 -15 29 -9 54 7 32 7 -10 8 -9 4 5 -10 29 17 41 28 13 l9 -22
6 25z m-99 -20 c0 -5 -2 -10 -4 -10 -3 0 -8 5 -11 10 -3 6 -1 10 4 10 6 0 11
-4 11 -10z m130 -26 c0 -8 -5 -12 -10 -9 -6 4 -8 11 -5 16 9 14 15 11 15 -7z"/>
<path d="M5904 4382 c-169 -42 -266 -182 -227 -326 29 -103 131 -185 256 -204
65 -10 148 2 207 30 48 22 122 86 115 99 -3 4 1 9 9 12 8 3 20 30 26 60 17 74
6 159 -26 196 -13 16 -24 33 -24 38 0 5 -15 20 -32 34 -91 67 -195 88 -304 61z
m204 -304 c2 -40 0 -47 -13 -42 -8 3 -15 10 -15 16 0 5 -5 6 -10 3 -6 -3 -17
1 -26 9 -8 9 -23 20 -32 25 -9 5 -13 13 -9 18 5 4 13 0 18 -10 8 -13 14 -15
29 -7 27 14 33 12 25 -7 -5 -15 -4 -16 7 -5 10 10 10 16 0 33 -12 18 -11 20 5
17 14 -2 19 -14 21 -50z m32 -8 c0 -5 -5 -10 -11 -10 -5 0 -7 5 -4 10 3 6 8
10 11 10 2 0 4 -4 4 -10z m-110 -37 c0 -22 -2 -25 -10 -13 -13 20 -13 40 0 40
6 0 10 -12 10 -27z m44 -33 c-5 -5 -10 3 -11 18 -1 22 0 24 9 8 6 -10 6 -22 2
-26z"/>
<path d="M4337 4046 c-127 -46 -209 -157 -201 -272 14 -197 265 -315 469 -221
124 58 184 151 177 277 -3 47 -47 134 -80 156 -96 66 -129 78 -217 81 -65 3
-92 -1 -148 -21z m222 -268 l12 -33 -22 21 c-12 12 -18 27 -15 33 10 16 13 14
25 -21z m-39 -3 c0 -8 3 -15 8 -15 12 0 31 -49 21 -56 -6 -3 -15 8 -22 25 -6
17 -15 31 -19 31 -4 0 -8 7 -8 15 0 8 5 15 10 15 6 0 10 -7 10 -15z m191 -48
c-10 -9 -11 -8 -5 6 3 10 9 15 12 12 3 -3 0 -11 -7 -18z m-251 -2 c0 -8 -4
-15 -10 -15 -5 0 -7 7 -4 15 4 8 8 15 10 15 2 0 4 -7 4 -15z m58 -33 c6 -18
-15 -14 -22 4 -4 10 -1 14 6 12 6 -2 14 -10 16 -16z m172 -18 c0 -18 -4 -24
-13 -21 -17 6 -77 -39 -77 -59 0 -8 -4 -14 -10 -14 -21 0 -9 26 25 53 20 16
33 33 29 39 -7 11 13 28 34 28 6 0 12 -12 12 -26z"/>
<path d="M5045 3568 c-74 -27 -139 -65 -172 -101 -125 -139 -76 -330 107 -416
48 -22 68 -26 155 -26 87 0 107 4 155 26 63 30 129 92 156 147 21 43 24 139 6
192 -15 45 -76 113 -124 139 -82 44 -216 63 -283 39z m199 -264 c9 -3 13 -10
10 -15 -3 -5 0 -9 7 -9 7 0 9 -3 6 -6 -4 -4 -13 -1 -22 6 -9 7 -19 10 -22 6
-4 -4 -1 -11 7 -16 10 -7 11 -10 3 -10 -7 0 -13 -4 -13 -10 0 -5 8 -7 18 -3
15 6 14 3 -3 -17 l-20 -23 20 7 c11 4 25 10 32 13 7 3 10 -3 6 -16 -3 -12 -10
-21 -15 -21 -5 0 -7 4 -4 9 4 5 -5 4 -19 -2 -14 -7 -25 -15 -25 -19 0 -5 -5
-8 -11 -8 -8 0 -10 12 -6 35 6 36 -1 43 -21 23 -7 -7 -12 -9 -12 -4 0 12 27
36 42 37 7 0 2 5 -12 12 l-25 11 28 4 c15 2 27 8 27 13 0 11 3 11 24 3z m-99
-24 c-3 -5 -14 -10 -23 -10 -15 0 -15 2 -2 10 20 13 33 13 25 0z m95 -124 c0
-3 -4 -8 -10 -11 -5 -3 -10 -1 -10 4 0 6 5 11 10 11 6 0 10 -2 10 -4z"/>
<path d="M6435 3521 c-3 -5 -2 -12 3 -15 5 -3 9 1 9 9 0 17 -3 19 -12 6z"/>
<path d="M6410 3506 c0 -2 8 -10 18 -17 15 -13 16 -12 3 4 -13 16 -21 21 -21
13z"/>
<path d="M6403 3475 c0 -8 4 -12 9 -9 5 3 6 10 3 15 -9 13 -12 11 -12 -6z"/>
<path d="M6291 3376 c-65 -65 -89 -96 -81 -101 8 -5 11 -4 7 2 -7 11 21 40 32
36 3 -2 6 0 6 5 0 15 17 32 26 26 5 -3 8 0 7 8 -2 7 3 12 10 11 6 -2 11 3 10
10 -2 6 3 11 10 10 6 -2 11 3 10 10 -2 6 3 11 10 10 6 -2 11 3 10 10 -2 6 3
11 10 10 6 -2 11 3 10 10 -2 6 2 11 8 10 6 -1 11 5 11 13 0 8 -1 14 -1 14 -1
0 -43 -42 -95 -94z"/>
<path d="M6173 3245 c0 -8 4 -12 9 -9 5 3 6 10 3 15 -9 13 -12 11 -12 -6z"/>
<path d="M3029 3229 c-64 -64 65 -268 255 -404 118 -84 203 -78 193 12 -11
104 -189 317 -317 381 -74 37 -102 40 -131 11z"/>
<path d="M6579 3222 c-56 -36 -167 -154 -215 -229 -78 -121 -105 -231 -66
-266 24 -22 34 -21 89 4 87 39 209 173 278 304 41 77 58 172 35 200 -20 24
-72 18 -121 -13z"/>
<path d="M6145 3231 c-3 -5 -2 -12 3 -15 5 -3 9 1 9 9 0 17 -3 19 -12 6z"/>
<path d="M5903 2976 c1 -6 -4 -10 -10 -8 -7 1 -12 -4 -10 -10 1 -7 -4 -12 -11
-10 -8 1 -11 -2 -7 -9 5 -7 17 -1 36 17 34 32 33 31 15 31 -8 0 -14 -5 -13
-11z"/>
<path d="M5785 2872 c2 -3 -13 -26 -34 -51 -21 -25 -40 -50 -41 -56 -1 -5 -6
-9 -11 -7 -14 3 -11 -4 7 -18 8 -8 14 -9 13 -4 -1 5 0 12 1 17 1 4 3 10 4 15
2 17 44 61 51 54 3 -4 5 0 3 8 -2 9 3 14 12 12 8 -2 12 0 8 4 -4 4 -3 12 2 19
7 8 5 12 -5 12 -8 0 -13 -2 -10 -5z"/>
<path d="M5754 2788 l-19 -23 23 19 c12 11 22 21 22 23 0 8 -8 2 -26 -19z"/>
<path d="M5609 2768 c-5 -13 -5 -60 0 -63 4 -2 7 12 7 31 0 29 -3 42 -7 32z"/>
<path d="M5679 2739 c0 -2 -2 -11 -4 -20 -1 -9 3 -16 10 -16 7 0 12 6 11 13
-2 13 -15 31 -17 23z"/>
<path d="M5575 2710 c14 -15 14 -19 -2 -31 -15 -12 -16 -12 -10 3 3 10 -1 22
-11 30 -15 11 -15 11 -5 -2 8 -10 9 -21 3 -30 -9 -14 -11 -13 -14 9 0 5 -5 13
-9 18 -5 4 -7 1 -5 -7 2 -8 -2 -14 -9 -13 -8 2 -10 -4 -6 -14 4 -10 2 -14 -4
-10 -6 4 -18 -2 -27 -12 -18 -20 -31 -21 -56 -6 -12 7 -13 6 -3 -7 11 -12 9
-18 -7 -33 -20 -19 -29 -8 -9 12 8 8 7 13 -3 18 -7 5 -10 5 -6 0 14 -15 -30
-62 -55 -60 -19 2 -23 -2 -25 -27 -1 -16 -3 -33 -5 -38 -1 -4 2 -7 8 -7 5 1 8
15 6 31 -1 15 1 26 6 23 9 -6 10 -47 1 -63 -3 -5 -4 -17 -3 -26 2 -10 -2 -16
-8 -15 -6 1 -11 -3 -12 -10 0 -6 -3 -15 -7 -19 -4 -4 -3 -13 3 -21 6 -7 8 -13
4 -13 -4 0 -2 -6 4 -14 8 -10 9 -16 1 -21 -6 -3 -7 -11 -4 -17 4 -7 2 -8 -5
-4 -9 6 -9 11 -1 21 8 9 8 15 0 20 -6 3 -8 10 -5 15 3 5 1 12 -5 15 -7 4 -7
12 -2 18 4 7 7 18 6 25 -1 6 -2 17 -3 23 0 5 -5 8 -10 4 -6 -3 -8 -14 -6 -25
2 -11 -1 -22 -6 -26 -6 -4 -6 -11 2 -20 6 -8 8 -14 4 -14 -4 0 -2 -6 4 -14 8
-10 9 -16 1 -21 -6 -4 -10 -3 -9 2 1 4 0 11 -1 16 -1 4 -3 13 -4 20 -1 6 -8
11 -16 9 -11 -3 -10 1 3 16 16 17 16 21 2 32 -15 13 -11 35 6 25 5 -3 6 2 3
12 -4 13 -3 14 3 5 7 -9 12 -7 20 10 15 30 13 55 -4 55 -7 0 -11 -3 -8 -5 3
-3 -1 -12 -9 -21 -14 -16 -16 -20 -16 -43 0 -9 -3 -8 -9 2 -6 8 -8 17 -5 21 2
4 -1 11 -7 15 -7 4 -9 3 -6 -3 9 -14 -17 -35 -29 -25 -5 4 -1 -3 9 -14 18 -21
18 -22 -4 -38 -26 -18 -41 -13 -32 12 3 9 3 14 -1 10 -4 -3 -8 -12 -10 -20 -1
-7 -6 -20 -11 -28 -8 -13 -7 -13 8 -1 9 7 17 9 17 3 0 -15 -26 -33 -35 -24 -5
4 -4 0 1 -8 4 -8 10 -23 11 -34 3 -16 1 -17 -12 -6 -13 11 -16 11 -13 -1 2 -8
-3 -13 -12 -11 -11 3 -11 -1 3 -16 16 -18 16 -20 -1 -35 -15 -13 -21 -14 -32
-4 -8 6 -6 2 4 -10 17 -21 14 -49 -5 -37 -5 3 -7 9 -4 14 3 5 1 11 -4 14 -13
8 -7 -22 6 -35 6 -6 9 -17 7 -24 -3 -7 -1 -16 5 -20 6 -3 11 -22 11 -41 0 -20
-4 -33 -10 -29 -5 3 -7 12 -3 20 3 8 2 23 -1 32 -5 13 -9 14 -19 4 -7 -7 -12
-17 -12 -24 -1 -7 -7 -10 -15 -9 -8 2 -12 0 -8 -4 4 -4 3 -13 -3 -20 -7 -8 -6
-14 2 -20 7 -4 9 -3 6 3 -4 6 2 18 13 28 11 10 17 21 15 26 -3 4 -1 10 5 14
17 10 11 -27 -7 -47 -12 -13 -13 -18 -4 -16 9 2 14 -11 17 -44 3 -39 1 -46
-14 -44 -9 2 -15 7 -14 12 2 5 8 8 13 6 6 -1 6 5 1 15 -5 10 -8 24 -6 31 1 7
0 8 -3 2 -2 -5 -10 -7 -16 -3 -7 4 -6 0 1 -10 15 -18 7 -41 -11 -31 -7 4 -2
-4 11 -18 12 -13 19 -28 15 -33 -5 -4 -2 -5 5 -1 14 8 17 -10 3 -18 -10 -6
-34 18 -26 26 3 3 -5 13 -17 24 l-23 19 19 -22 c11 -13 15 -23 11 -23 -4 0 0
-9 10 -20 10 -11 15 -20 11 -20 -4 0 -1 -10 6 -22 16 -30 18 -47 8 -53 -10 -6
-5 -44 6 -54 4 -3 4 2 1 12 -4 9 -2 17 4 17 6 0 9 -9 6 -20 -5 -20 15 -45 26
-33 12 11 8 25 -5 17 -7 -5 -8 -3 -3 6 6 10 11 10 20 -3 7 -9 15 -13 19 -9 5
4 1 -9 -6 -28 -10 -23 -21 -34 -31 -32 -10 2 -17 -4 -17 -12 0 -8 -4 -18 -10
-21 -7 -4 -7 2 -1 19 8 18 6 28 -5 37 -11 9 -12 15 -2 26 9 11 8 13 -2 11 -8
-2 -14 2 -15 9 0 6 -3 14 -7 18 -5 6 -3 -25 2 -32 2 -2 3 -6 5 -10 1 -5 5 -16
9 -25 4 -9 6 -25 3 -35 -4 -15 -5 -14 -6 4 0 12 -5 24 -10 27 -4 3 -6 -7 -4
-22 4 -22 2 -24 -7 -12 -10 13 -11 13 -9 0 3 -29 -1 -41 -11 -35 -16 10 -12
-1 6 -15 8 -8 14 -9 13 -4 -1 5 -1 16 0 24 1 13 3 13 10 0 6 -8 7 -18 4 -24
-3 -5 -1 -6 4 -3 13 8 26 -20 17 -36 -5 -9 -4 -9 5 -1 9 8 10 18 3 30 -5 11
-7 25 -5 32 6 15 23 6 19 -11 -1 -7 -1 -9 1 -4 3 4 10 4 16 0 7 -4 5 2 -3 12
-14 17 -13 18 2 12 19 -7 45 17 29 27 -14 9 6 53 43 96 17 19 21 26 9 16 -25
-21 -30 -11 -9 16 7 10 16 14 20 10 4 -4 7 -2 6 3 -1 6 -1 13 0 18 1 4 3 10 5
15 1 4 11 27 23 52 12 25 22 51 22 58 0 7 5 10 10 7 6 -4 10 -3 9 2 -4 16 21
64 30 59 5 -4 8 2 6 11 -1 10 4 26 13 36 8 9 12 17 8 17 -3 0 3 18 14 40 12
23 25 38 30 35 6 -4 7 1 3 11 -5 13 -3 15 7 9 8 -5 11 -4 6 3 -3 6 -2 13 3 16
5 3 7 16 4 29 -5 22 -5 22 11 2 10 -11 15 -14 11 -8 -3 7 1 22 9 34 8 12 12
28 9 37 -4 9 -2 13 4 9 16 -10 34 18 26 38 -4 12 -3 16 4 12 13 -8 35 16 31
34 -2 7 2 13 9 14 6 0 15 4 20 9 5 5 3 6 -4 2 -7 -4 -13 -3 -13 2 0 17 13 22
29 9 13 -10 14 -10 6 3 -18 26 -12 55 10 55 14 0 19 6 17 19 -3 18 -2 18 15 6
15 -12 16 -12 6 0 -7 8 -13 21 -13 29 0 11 4 10 15 -5 15 -18 15 -18 8 0 -4
13 -3 17 4 13 7 -5 9 1 5 15 -5 21 -4 22 13 8 10 -8 16 -10 12 -4 -4 7 3 23
14 38 11 14 19 26 17 27 -28 6 -35 5 -35 -10 0 -41 -3 -47 -13 -31 -7 11 -10
11 -10 2 0 -7 -4 -11 -9 -8 -5 4 -7 -4 -3 -16 3 -14 2 -19 -6 -14 -14 8 -36
-40 -26 -56 4 -6 1 -9 -7 -6 -17 6 -19 28 -5 48 9 13 9 13 -6 2 -9 -7 -15 -22
-13 -32 2 -11 0 -22 -5 -25 -5 -3 -6 -13 -3 -23 6 -15 5 -15 -10 -3 -9 7 -14
18 -10 25 4 6 8 18 8 27 0 9 8 26 18 37 10 11 17 23 16 28 -3 20 2 35 10 29 6
-3 8 -14 6 -25 -2 -12 0 -18 5 -15 4 3 7 13 5 23 -1 9 4 24 12 34 10 11 11 18
3 23 -5 3 -8 10 -6 14 3 4 -1 8 -9 8 -13 0 -13 -3 0 -17z m-37 -63 c-1 -12 -9
-30 -17 -41 -9 -10 -16 -26 -16 -35 0 -9 -4 -21 -8 -27 -4 -7 0 -17 8 -24 12
-10 12 -15 -3 -38 -9 -14 -17 -33 -17 -41 0 -9 -7 -16 -15 -16 -9 0 -15 -10
-15 -25 0 -15 -6 -25 -15 -25 -9 0 -15 -10 -16 -23 -1 -25 -10 -37 -27 -37 -7
0 -12 -10 -12 -21 -1 -12 -12 -37 -26 -55 -14 -19 -29 -41 -33 -49 -3 -9 -4
-5 -2 8 2 12 0 22 -5 22 -9 0 -13 -16 -9 -35 1 -5 3 -18 5 -27 2 -9 -3 -22
-11 -28 -7 -7 -12 -16 -9 -20 3 -5 0 -12 -5 -15 -6 -4 -15 -17 -21 -28 -5 -12
-13 -29 -19 -37 -9 -15 -52 -110 -54 -120 -1 -3 -11 -20 -24 -37 -13 -18 -21
-37 -17 -42 10 -17 -12 -21 -26 -5 -16 19 -21 47 -8 38 5 -3 7 -9 4 -14 -3 -5
-1 -11 4 -14 10 -7 23 19 13 28 -3 4 -7 14 -8 22 -1 9 1 13 4 9 4 -4 8 -11 8
-16 3 -22 5 -23 14 -9 6 9 5 19 -2 28 -9 10 -8 12 2 10 17 -4 20 21 6 42 -6 8
-1 6 12 -4 23 -20 31 -10 10 14 -11 12 -10 12 5 1 10 -8 17 -9 17 -3 0 6 -5
14 -10 17 -6 4 -7 12 -3 18 4 7 8 15 8 19 0 3 4 10 9 15 5 4 6 3 2 -4 -3 -6
-2 -14 4 -18 5 -3 11 1 11 9 1 9 2 25 3 35 0 11 5 23 10 28 5 4 6 3 2 -4 -3
-6 -2 -14 4 -18 5 -3 10 3 10 14 0 12 5 21 11 21 5 0 7 5 4 10 -5 8 -12 7 -23
-2 -13 -11 -14 -11 -7 2 13 21 15 39 4 46 -5 3 -6 16 -3 29 3 12 1 26 -5 29
-6 4 -11 12 -11 19 0 6 7 2 15 -9 14 -18 15 -18 11 9 -3 16 -1 25 5 22 10 -7
8 23 -4 41 -4 7 0 17 8 24 8 7 12 17 8 23 -4 6 -1 7 6 3 9 -6 8 -12 -4 -26
-11 -12 -13 -20 -5 -25 5 -3 8 -10 5 -14 -2 -5 2 -17 10 -27 13 -18 14 -18 11
6 -1 14 -6 32 -11 40 -8 13 -6 13 10 0 17 -14 17 -13 11 10 -6 19 -5 21 3 10
10 -14 15 -7 12 13 -1 4 3 16 8 26 7 12 6 22 -1 29 -7 7 -8 12 -4 12 5 0 2 8
-5 18 -13 15 -12 16 3 4 10 -8 17 -17 16 -20 -2 -20 3 -25 12 -12 6 10 3 22
-13 39 -12 13 -16 21 -9 17 13 -8 14 -5 16 64 1 25 -2 51 -7 58 -6 8 -6 12 2
12 6 0 11 -6 11 -12 0 -7 7 -2 16 10 8 12 19 20 23 17 5 -2 18 7 31 20 13 13
26 22 30 20 4 -3 15 4 25 15 10 11 22 17 26 14 5 -3 12 2 15 10 8 22 23 10 22
-17z m-252 -132 c-3 -9 -11 -13 -16 -10 -8 5 -7 11 1 21 14 18 24 11 15 -11z
m-51 -43 c-8 -8 -25 10 -19 20 4 6 9 5 15 -3 4 -7 6 -15 4 -17z m8 -26 c3 -8
-1 -20 -9 -27 -8 -6 -12 -14 -10 -17 3 -2 -3 -15 -13 -28 -12 -15 -17 -38 -16
-73 1 -27 -2 -48 -6 -46 -3 3 -5 18 -4 35 1 16 -3 34 -10 40 -10 8 -12 2 -10
-29 1 -23 -2 -39 -8 -38 -5 1 -12 -4 -15 -12 -3 -10 0 -11 9 -5 12 7 12 5 0
-9 -7 -9 -11 -26 -8 -37 3 -10 -2 -25 -10 -31 -17 -15 -15 -67 5 -91 9 -11 10
-18 2 -23 -6 -3 -10 -3 -9 2 3 17 -1 24 -11 18 -7 -4 -6 -13 1 -26 8 -16 14
-18 24 -9 9 8 15 8 20 0 4 -6 2 -9 -3 -8 -6 2 -9 1 -8 -2 0 -3 -9 -18 -21 -34
-17 -21 -20 -33 -13 -46 7 -13 6 -21 -2 -26 -7 -4 -10 -4 -6 1 4 4 3 16 -2 25
-7 13 -4 24 9 42 18 23 18 24 0 47 -10 13 -16 28 -12 34 3 5 1 7 -5 4 -11 -8
-5 -44 9 -53 5 -3 2 -15 -5 -27 -8 -12 -13 -40 -12 -62 3 -39 -10 -75 -28 -75
-4 0 -4 6 2 13 6 6 12 14 13 17 2 3 -4 16 -13 29 -16 23 -16 26 -1 43 13 15
14 20 3 33 -11 13 -11 16 1 13 17 -4 21 78 4 102 -8 13 -7 13 6 3 9 -7 19 -10
22 -6 12 11 8 68 -5 81 -10 10 -10 15 2 22 12 8 12 10 1 10 -11 0 -11 3 -1 15
6 8 9 18 6 23 -3 5 3 17 14 27 15 14 17 21 9 32 -11 13 -10 14 14 17 6 0 12
14 12 29 0 18 12 40 34 62 37 39 46 42 54 21z m7 -59 c0 -2 -10 -12 -22 -23
l-23 -19 19 23 c18 21 26 27 26 19z m7 -32 c0 -8 -4 -12 -9 -9 -5 3 -6 10 -3
15 9 13 12 11 12 -6z m-90 -140 c0 -8 -4 -12 -9 -9 -5 3 -6 10 -3 15 9 13 12
11 12 -6z m64 -22 c13 -16 12 -17 -3 -4 -10 7 -18 15 -18 17 0 8 8 3 21 -13z
m-5 -31 c0 -4 4 -14 8 -23 4 -8 2 -26 -4 -40 -10 -23 -10 -23 -5 4 3 16 1 35
-6 43 -6 8 -8 14 -4 14 4 0 1 8 -6 18 -11 15 -11 15 1 4 8 -7 15 -16 16 -20z
m-73 -4 c-11 -15 -11 -28 0 -45 4 -6 2 -15 -4 -19 -7 -4 -9 -3 -5 4 3 6 2 13
-3 16 -14 9 -1 56 16 56 3 0 1 -6 -4 -12z m42 4 c-3 -3 2 -13 11 -23 12 -14
13 -18 2 -25 -7 -4 -10 -3 -5 1 4 5 -2 18 -13 30 -16 17 -17 22 -5 22 8 0 13
-3 10 -5z m-7 -49 c-2 -12 2 -17 12 -15 8 2 12 0 8 -4 -4 -4 -2 -14 5 -22 9
-13 9 -14 0 -8 -7 4 -14 2 -14 -3 -3 -26 -4 -30 -11 -35 -5 -3 -6 -3 -3 1 3 3
-1 13 -7 21 -15 17 -20 44 -7 36 5 -3 7 -9 4 -14 -3 -5 -1 -11 4 -14 15 -10
21 22 6 34 -8 6 -11 18 -8 26 7 20 14 18 11 -3z m-31 -121 c-10 -10 -14 -21
-11 -24 3 -3 1 -9 -4 -12 -6 -3 -9 0 -8 6 3 18 29 58 35 53 2 -3 -3 -13 -12
-23z m-37 -267 c-8 -14 -39 -13 -33 1 2 7 12 11 21 10 9 -2 15 -7 12 -11z
m-62 -30 c-3 -3 -9 2 -12 12 -6 14 -5 15 5 6 7 -7 10 -15 7 -18z"/>
<path d="M5475 2630 c-10 -11 -21 -18 -25 -15 -4 2 -17 -7 -30 -20 -13 -13
-26 -22 -30 -20 -15 9 -36 -40 -35 -80 1 -22 -2 -47 -6 -56 -6 -11 -3 -21 6
-29 13 -11 12 -17 -6 -47 -21 -34 -21 -51 1 -38 6 4 9 14 6 22 -3 8 -1 11 4 8
6 -3 11 4 11 17 1 16 3 18 6 6 2 -9 -1 -27 -8 -40 -8 -13 -12 -26 -11 -30 1
-4 -4 -5 -12 -2 -15 6 -50 -42 -41 -56 11 -18 -5 -32 -21 -19 -8 6 -14 10 -15
8 0 -2 -2 -13 -3 -24 -2 -11 -6 -30 -10 -42 -4 -12 -2 -24 4 -28 6 -3 8 -10 5
-15 -3 -4 3 -14 12 -21 9 -8 14 -9 10 -3 -4 7 0 17 7 24 13 10 14 45 2 58 -10
9 16 43 29 38 15 -5 51 42 47 62 -4 17 18 43 29 36 5 -3 10 1 10 8 3 36 23 83
39 93 8 5 8 11 1 19 -8 9 -6 18 8 30 11 10 17 25 14 34 -4 9 -2 13 4 9 5 -3 9
3 8 16 -1 12 2 28 8 35 6 8 6 12 -2 12 -10 0 -15 -14 -12 -33 1 -5 -3 -6 -9
-2 -6 4 -7 -1 -4 -12 4 -14 3 -15 -4 -4 -7 9 -12 10 -16 2 -4 -6 -2 -11 3 -11
6 0 11 -5 11 -11 0 -5 -5 -7 -12 -3 -7 5 -8 3 -3 -6 6 -9 4 -11 -5 -5 -9 6
-11 4 -5 -5 5 -8 4 -11 -3 -6 -7 4 -10 -1 -7 -14 2 -11 0 -18 -5 -15 -6 3 -7
-2 -4 -12 5 -15 4 -16 -6 -3 -9 12 -10 10 -5 -10 5 -20 4 -22 -5 -10 -10 13
-11 13 -7 -1 3 -9 -1 -16 -8 -16 -10 0 -11 5 -4 18 14 27 11 33 -8 18 -15 -12
-16 -12 -7 1 12 20 13 72 2 87 -6 7 -4 14 3 19 7 4 9 3 5 -4 -3 -6 -1 -14 5
-18 9 -5 10 1 5 22 -5 24 -4 26 5 11 6 -10 7 -26 3 -35 -10 -25 -10 -62 1 -59
5 1 10 14 10 29 0 15 4 30 8 34 3 4 2 16 -4 27 -9 15 -8 18 2 12 8 -6 10 -4 4
5 -5 8 -4 11 3 6 6 -4 8 -14 5 -23 -4 -11 -3 -14 6 -9 7 5 10 15 7 23 -4 9 -2
11 6 7 7 -5 8 -3 3 6 -6 9 -4 11 5 5 8 -5 11 -4 7 2 -3 5 0 10 8 10 8 0 12 -5
8 -10 -8 -14 32 10 46 27 10 12 9 17 -7 25 -15 8 -23 6 -37 -9z m35 -15 c-6
-8 -20 -13 -30 -12 -18 1 -18 3 -4 18 19 21 51 14 34 -6z m-60 -9 c0 -2 -8
-10 -17 -17 -16 -13 -17 -12 -4 4 13 16 21 21 21 13z m20 -109 c0 -2 -10 -12
-22 -23 l-23 -19 19 23 c18 21 26 27 26 19z m-32 -75 c-22 -28 -39 -62 -34
-70 2 -4 -7 -15 -21 -26 l-25 -19 17 27 c10 14 15 35 12 46 -3 11 -1 17 4 14
5 -3 17 8 26 25 10 16 21 27 26 24 5 -3 2 -12 -5 -21z m-78 -137 c11 -14 7
-19 -12 -16 -8 1 -12 -15 -9 -34 1 -5 -5 -3 -14 6 -14 14 -15 20 -3 38 15 25
21 26 38 6z m-74 -110 c0 -39 -2 -43 -14 -31 -9 9 -11 19 -6 28 9 13 10 18 13
38 3 27 8 5 7 -35z"/>
<path d="M5485 2620 c-3 -5 -1 -10 4 -10 6 0 11 5 11 10 0 6 -2 10 -4 10 -3 0
-8 -4 -11 -10z"/>
<path d="M5332 2278 c-7 -7 -12 -17 -12 -22 0 -6 5 -3 11 7 6 9 15 14 21 11 7
-4 8 -2 4 4 -9 15 -9 15 -24 0z"/>
<path d="M5435 2540 c-27 -39 -31 -66 -5 -35 7 8 9 15 4 15 -4 0 3 11 16 25
13 14 21 27 18 30 -3 3 -18 -13 -33 -35z"/>
<path d="M5472 2467 c-8 -9 -8 -17 0 -27 8 -13 9 -12 5 1 -3 9 0 22 6 28 6 6
8 11 5 11 -3 0 -10 -6 -16 -13z"/>
<path d="M5205 1991 c-3 -5 -1 -12 5 -16 5 -3 10 1 10 9 0 18 -6 21 -15 7z"/>
<path d="M5198 2422 c-34 -37 -39 -57 -22 -79 9 -10 13 -13 10 -7 -3 7 4 23
15 38 11 14 17 26 13 26 -4 0 1 9 10 19 10 10 13 22 8 25 -5 3 -20 -7 -34 -22z
m19 0 c-10 -10 -14 -22 -10 -27 5 -4 2 -5 -4 -1 -8 4 -13 1 -13 -8 0 -8 -4
-18 -10 -21 -16 -10 1 27 23 53 11 12 23 22 25 22 3 0 -2 -8 -11 -18z"/>
<path d="M5143 2313 c4 -3 2 -12 -4 -20 -6 -7 -8 -13 -3 -13 5 0 2 -5 -6 -10
-9 -6 -10 -10 -3 -10 6 0 15 6 20 13 13 20 14 47 1 47 -6 0 -8 -3 -5 -7z"/>
<path d="M5119 2243 c-1 -4 0 -19 1 -32 1 -17 -2 -21 -12 -15 -10 6 -10 4 1
-9 17 -22 24 -16 25 24 1 27 -12 54 -15 32z"/>
<path d="M5101 2097 c-8 -10 -7 -14 2 -14 8 0 14 6 14 14 0 7 -1 13 -2 13 -2
0 -8 -6 -14 -13z"/>
<path d="M5089 2003 c-13 -16 -12 -17 4 -4 16 13 21 21 13 21 -2 0 -10 -8 -17
-17z"/>
<path d="M5075 1940 c6 -30 16 -40 12 -12 -2 12 -6 24 -10 28 -3 4 -4 -4 -2
-16z"/>
<path d="M5464 2668 l-19 -23 23 19 c12 11 22 21 22 23 0 8 -8 2 -26 -19z"/>
<path d="M5599 2673 c-13 -16 -12 -17 4 -4 16 13 21 21 13 21 -2 0 -10 -8 -17
-17z"/>
<path d="M3552 2498 c-33 -33 -4 -118 73 -218 121 -157 289 -262 355 -221 23
16 15 75 -21 143 -42 78 -193 233 -269 277 -57 32 -117 40 -138 19z"/>
<path d="M5290 2494 c0 -17 17 -36 24 -26 3 5 -1 15 -9 22 -8 7 -15 9 -15 4z"/>
<path d="M5179 2477 c6 -8 7 -18 3 -22 -4 -5 -1 -5 6 -1 10 6 10 11 1 22 -6 8
-14 14 -16 14 -3 0 0 -6 6 -13z"/>
<path d="M5093 2305 c0 -8 4 -12 9 -9 5 3 6 10 3 15 -9 13 -12 11 -12 -6z"/>
<path d="M5043 2183 c0 -9 4 -10 14 -2 7 6 13 12 13 14 0 1 -6 2 -13 2 -8 0
-14 -6 -14 -14z"/>
<path d="M5010 2176 c0 -2 8 -10 18 -17 15 -13 16 -12 3 4 -13 16 -21 21 -21
13z"/>
<path d="M5977 2089 c-52 -14 -155 -98 -222 -182 -76 -94 -146 -228 -145 -278
1 -77 1 -77 40 -72 78 9 158 61 238 155 105 123 153 217 160 312 4 50 2 67 -7
62 -6 -4 -11 -3 -11 2 0 11 -16 11 -53 1z"/>
<path d="M5039 1908 c-5 -18 -6 -38 -1 -34 7 8 12 36 6 36 -2 0 -4 -1 -5 -2z"/>
<path d="M5164 1798 l-19 -23 23 19 c21 18 27 26 19 26 -2 0 -12 -10 -23 -22z"/>
<path d="M4060 1781 c-18 -35 -11 -73 27 -140 85 -153 279 -311 381 -311 104
0 52 140 -113 305 -140 141 -264 202 -295 146z"/>
<path d="M5070 1786 c0 -23 36 -40 44 -20 9 24 7 36 -4 29 -6 -4 -8 -10 -6
-14 3 -4 -1 -8 -9 -8 -8 0 -12 4 -9 8 2 4 0 10 -6 14 -5 3 -10 -1 -10 -9z"/>
<path d="M5145 1761 c-3 -5 -2 -12 3 -15 5 -3 9 1 9 9 0 17 -3 19 -12 6z"/>
<path d="M5079 1623 c-13 -16 -12 -17 4 -4 9 7 17 15 17 17 0 8 -8 3 -21 -13z"/>
<path d="M5200 1166 c0 -2 8 -10 18 -17 15 -13 16 -12 3 4 -13 16 -21 21 -21
13z"/>
<path d="M5399 1153 c-12 -16 -12 -17 2 -6 9 7 20 9 24 5 5 -4 5 -1 1 6 -9 16
-11 15 -27 -5z"/>
<path d="M5123 1145 c0 -8 4 -12 9 -9 5 3 6 10 3 15 -9 13 -12 11 -12 -6z"/>
<path d="M5154 1134 c1 -8 5 -16 8 -20 4 -3 4 -13 1 -22 -3 -11 -2 -13 4 -6 4
6 20 10 34 9 16 -1 31 6 38 17 11 18 11 18 -14 2 -26 -17 -30 -13 -26 26 2 13
0 13 -8 1 -5 -8 -6 -21 -3 -30 5 -14 4 -14 -11 -2 -12 9 -14 17 -7 26 7 8 6
12 -4 12 -8 0 -13 -6 -12 -13z"/>
<path d="M5286 1142 c-2 -4 -1 -14 4 -22 7 -11 11 -11 24 -1 9 8 16 10 16 5 0
-4 5 -3 11 3 6 6 19 9 28 6 13 -4 14 -3 1 5 -9 7 -19 7 -25 2 -7 -6 -16 -5
-24 3 -7 6 -11 8 -9 2 2 -5 -1 -11 -7 -12 -5 -2 -9 2 -7 7 2 12 -5 13 -12 2z"/>
<path d="M5264 1122 c3 -5 0 -13 -6 -15 -9 -4 -10 -6 -1 -6 17 -1 25 16 12 25
-7 4 -9 3 -5 -4z"/>
<path d="M5137 1099 c4 -13 8 -18 11 -10 2 7 -1 18 -6 23 -8 8 -9 4 -5 -13z"/>
<path d="M5096 1097 c3 -10 9 -15 12 -12 3 3 0 11 -7 18 -10 9 -11 8 -5 -6z"/>
</g>
</svg>
